<svg xmlns="http://www.w3.org/2000/svg" viewBox="0 0 24 24"><defs><style>.a{fill:none;stroke:#333;stroke-width:1.25;stroke-miterlimit:10;}</style></defs><circle class="a" cx="12" cy="12" r="2.5"/><polygon class="a" points="8.82 17.3 7.05 18.36 5.64 16.95 6.7 15.18 6 13.5 4 13 4 11 6 10.5 6.7 8.82 5.64 7.05 7.05 5.64 8.82 6.7 10.5 6 11 4 13 4 13.5 6 15.18 6.7 16.95 5.64 18.36 7.05 17.3 8.82 18 10.5 20 11 20 13 18 13.5 17.3 15.18 18.36 16.95 16.95 18.36 15.18 17.3 13.5 18 13 20 11 20 10.5 18 8.82 17.3"/></svg>