<?xml version="1.0"?>
<svg xmlns="http://www.w3.org/2000/svg" viewBox="0 0 454 240">
  <defs><style>path{fill:#333}</style></defs>
  <path d="M71.48,108.19c-23.11-11.82-42.39-23.51-42.39-39,0-16.13,8.18-26.78,27-38.42,15.79-9.77,34-13.09,43.63-13.09,18.5,0,25.33,10.81,23,19.06C118,53,96.69,74.42,80.06,73.35h0c-1.18,0-1.27,2.06-1.27,2.7A19.16,19.16,0,0,0,83,86.85a15.76,15.76,0,0,0,13.59,6.3c15.92-1,39.4-22.74,45.63-46.7,2.7-10.41,1.51-23.93-13.38-36.3-7-5.8-18.19-9.3-30.07-9.3C77.38.85,53.27,6.47,33.55,19.92,11.74,34.81,1.47,50.75,1.47,67.64c0,34.72,26.62,42.1,53.38,55.69,27.46,13.93,53.39,27.09,49.24,46.2-5.66,26-45.95,48.88-67.3,48.88-4.1,0-7.42-.8-9.87-2.39-3.7-2.4-5.25-6.19-4.49-11,2.21-13.89,23.52-33.61,41.46-38.38,1.32-.35,1.93-1,1.8-2-.38-3-6.13-7.22-15.5-7.22a41.36,41.36,0,0,0-16.39,3.76C16.15,168.89,1.35,187.81.1,204.29c-.85,11.08,4.18,20.38,14.54,26.9,5.88,3.7,14,5.66,23.6,5.66,35.53,0,81.17-24.85,92.94-65C139.63,143,103.42,124.53,71.48,108.19Z"/>
  <path d="M451.85,99.86c-3.66-18.8-16.31-31.27-34.22-31.27-30.6,0-39.17,24.19-39.52,25.22l-.36,1-1.05-.32h0a2.79,2.79,0,0,0-.44,0,4.77,4.77,0,0,0-2.34.7c-4,2.32-9.16,16.6-8.49,36-5.08,12-13,28-19.14,30.87a4.91,4.91,0,0,1-2.07.5,4.18,4.18,0,0,1-3.35-1.79c-5.83-7.47-4.06-40.09,4.66-75.08a10,10,0,0,0-2-9C340,72.13,328.73,66,324.14,66c-1.59,0-2.72.37-2.89.93-.88,2.93-2.85,13-4.62,26.17-9.4.25-18,.55-25.73.92,9.78-44.91,30.06-81.06,39-81.06a3.22,3.22,0,0,1,.76.09c3.89.85,3.71,13.07,2.47,19.82a18.74,18.74,0,0,0,1.14,10c2.85,5.83,7.78,8.31,12.19,8.31h0a9.84,9.84,0,0,0,1.12-.06c5.48-.62,14.11-3.68,14.1-11.95C361.64,12.81,346.91,0,329.26,0c-35.21,0-53.41,44.66-60.43,84.53q-1,5.67-1.83,11.22c-9.12,1.07-14.79,2.49-16.13,4.45-3.34,4.87-5.81,14-4.84,15.88.07.14.15.24.48.24a2.5,2.5,0,0,0,.51-.06c4.62-1.06,9.57-1.93,14.61-2.65-3.53,15.56-9.93,38-19.69,45.67a4.79,4.79,0,0,1-2.9,1.18,3.44,3.44,0,0,1-2.66-1.33c-6.07-7.1-7.09-47.92-1.89-81.08a7.27,7.27,0,0,0-1.85-6c-3.63-4.24-11.51-6.53-17.09-6.53-3.58,0-5.34.93-5.47,1.78l-.21,1.42c-1.44,9.71-2.34,18.61-2.88,26.76-5.88,45.32-17.3,60.41-21.21,63.47a5.31,5.31,0,0,1-3,1.26,4.44,4.44,0,0,1-3.72-1.87c-6-7.28-10.05-40.87-.84-77.55a6,6,0,0,0-1.43-5.47c-3.82-4.65-13.38-7.53-19.56-7.21-2.41.12-4,.76-4.21,1.66-.12.54-.31,1.6-.54,3-2.93,8.46-12.4,27.16-38.86,40.65-.68.34-.58,1.39-.29,2.19,1.19,3.27,8,8.09,18.37,6.67,6.59-.89,12.15-4.63,16.76-9.54a278.79,278.79,0,0,0,.63,41.43c1.8,17.67,13.26,29.49,25.79,27.9,17.94-2.29,27.55-20,32.63-35.24.09,1.82.16,3.51.2,5.06.46,19.72,16,28.4,26.15,27.61,13.71-1.06,22.21-11.94,27.47-23.83-.51,13.68-.44,26.2-.06,37.27C198.86,195.5,151.76,205,141,209c-11.37,4.19-16.23,13.22-14,21.75,1.44,5.64,6.9,8.71,8.9,7.69,33.37-16.94,79.54-26.46,126.19-29.87.8,12,1.89,21.53,2.74,28C265,238.24,266,240,268,240a4.43,4.43,0,0,0,.8-.08c6-1.19,19.32-7.42,17.93-24-.22-2.73-.44-5.59-.64-8.54,5.38-.16,10.75-.24,16.07-.24,56.66,0,102,6.37,106.39,7.17a4.83,4.83,0,0,0-.17-3.11c-.74-2.22-3.75-7.59-15.74-9.63-31.61-5.38-65.35-9.22-100.27-9.22q-3.58,0-7.12,0c-1.15-26-.93-56.35,2.55-81.29,13.24-.82,23.95-.86,26.87-.9-1.28,13.86-1.94,29-.94,42.27,1.36,18,12,27.79,23.08,27.79,13.38,0,24.76-14.46,31.87-26.62.1.41.2.82.31,1.23,5.22,19.28,23.71,26.12,38,26.12h0l1.32,0c11-.32,23.82-7.66,32.66-18.71S458,131.41,451.85,99.86Zm-29.93,52.66c-3.94,6.46-7.79,10-13.95,11.2a10.91,10.91,0,0,1-2.1.21c-23.15,0-16.31-49.71-16.27-51.31l0-1.63c1.47.59,5.19,1.92,7.91,1.42a2.25,2.25,0,0,1,.34,0c-2.11-7.41-.95-14.52,3.25-20.15,3.64-4.86,9.17-7.88,14.45-7.88,6.07,0,9.38,4.14,11.33,10.79C431.69,111.44,431.24,137.25,421.92,152.52Z"/>
</svg>